<?xml version="1.0" encoding="utf-8"?>
<!-- Generator: Adobe Illustrator 23.0.2, SVG Export Plug-In . SVG Version: 6.00 Build 0)  -->
<svg version="1.1" id="Calque_1" xmlns="http://www.w3.org/2000/svg" xmlns:xlink="http://www.w3.org/1999/xlink" x="0px" y="0px"
	 viewBox="0 0 60 60.1" style="enable-background:new 0 0 60 60.1;" xml:space="preserve">
<title>Fichier 1</title>
<g>
	<g id="Calque_1-2">
		<path d="M0.8,54.9L12,43.8C3.5,33.1,4.3,17.6,14,7.9c10.5-10.5,27.5-10.5,38.1,0c0,0,0,0,0,0c5.1,5,7.9,11.9,7.9,19.1
			c0,7.2-2.8,14.1-7.9,19.1c-9.7,9.7-25.2,10.6-35.9,2L5.1,59.2c-0.5,0.6-1.3,0.9-2.1,0.9c-0.8,0-1.6-0.3-2.1-0.9
			C-0.3,58-0.3,56.1,0.8,54.9z M12,27c0,5.6,2.2,10.9,6.2,14.8C22.1,45.7,27.5,48,33,48c5.6,0,10.9-2.2,14.8-6.2
			C51.7,37.9,54,32.6,54,27c0-5.6-2.2-10.9-6.2-14.8C43.9,8.3,38.6,6,33,6c-5.6,0-10.9,2.2-14.8,6.2C14.3,16.1,12,21.4,12,27z"/>
	</g>
</g>
</svg>
