<?xml version="1.0" encoding="UTF-8" ?>
<!DOCTYPE svg PUBLIC "-//W3C//DTD SVG 1.1//EN" "http://www.w3.org/Graphics/SVG/1.1/DTD/svg11.dtd">
<svg width="512pt" height="512pt" viewBox="0 0 512 512" version="1.1" xmlns="http://www.w3.org/2000/svg">
<g id="#00cc3fff">
<path fill="#00cc3f" opacity="1.00" d=" M 0.00 0.00 L 512.00 0.00 L 512.00 512.00 L 0.00 512.00 L 0.00 0.00 M 197.61 169.48 C 187.77 174.76 177.82 179.84 167.99 185.13 C 164.33 187.14 159.67 188.55 158.19 192.92 C 158.74 194.52 159.28 196.30 160.85 197.21 C 162.75 198.68 165.27 197.75 167.34 197.19 C 180.72 193.04 194.00 188.55 207.33 184.24 C 210.66 183.05 214.45 181.66 216.24 178.37 C 218.58 174.59 217.01 168.97 212.89 167.15 C 207.86 164.42 202.24 167.27 197.61 169.48 M 80.10 193.05 C 78.16 200.29 76.44 207.59 74.58 214.85 C 69.31 215.86 63.70 214.69 58.33 215.38 C 55.74 215.78 53.78 218.46 53.98 221.04 C 53.78 223.68 56.48 225.60 58.91 225.67 C 63.30 225.90 67.70 225.60 72.09 225.85 C 66.95 245.24 62.17 264.73 57.23 284.18 C 55.08 293.25 51.79 302.43 53.18 311.89 C 54.01 316.38 56.56 321.11 61.09 322.72 C 67.67 324.49 74.02 320.84 79.02 316.90 C 86.97 310.45 93.51 302.39 98.94 293.75 C 100.47 291.07 102.32 288.26 102.17 285.05 C 102.11 281.63 96.80 279.80 94.96 282.96 C 90.51 290.58 85.42 298.00 78.66 303.76 C 77.34 304.58 75.61 306.16 74.04 304.98 C 73.56 303.03 73.72 301.00 74.17 299.07 C 80.39 274.62 86.37 250.11 92.62 225.68 C 99.02 225.70 105.43 225.94 111.82 225.60 C 116.90 225.60 119.23 216.54 113.66 215.42 C 107.42 214.87 101.12 215.37 94.86 215.22 C 96.92 207.23 100.10 199.31 100.09 190.96 C 96.77 187.13 91.35 188.35 86.89 188.24 C 83.92 188.20 80.68 189.93 80.10 193.05 M 311.89 223.92 C 312.62 230.78 319.80 234.93 320.02 241.93 C 320.37 251.93 316.59 261.54 312.39 270.44 C 306.74 281.52 299.44 291.88 290.19 300.25 C 284.37 305.18 277.72 309.59 270.09 310.95 C 267.37 311.14 264.34 311.63 261.88 310.16 C 258.56 308.40 256.36 304.76 256.43 300.99 C 256.50 293.30 259.65 286.14 262.09 278.98 C 267.12 264.64 272.15 250.31 277.13 235.96 C 278.75 230.88 280.15 225.46 279.12 220.12 C 278.69 216.55 275.86 213.58 272.54 212.40 C 267.31 211.04 261.82 212.58 257.27 215.27 C 246.31 221.67 236.57 230.72 230.82 242.16 C 229.41 244.71 231.25 248.09 234.05 248.57 C 236.38 248.60 237.92 246.74 239.08 244.98 C 242.84 239.24 247.59 234.19 252.76 229.70 C 254.24 228.29 256.21 227.64 258.23 227.51 C 258.04 229.39 257.79 231.28 257.10 233.06 C 251.24 249.35 245.54 265.71 239.84 282.06 C 238.01 288.25 235.72 294.48 235.97 301.03 C 235.86 308.23 238.92 316.04 245.40 319.73 C 251.96 323.77 260.10 323.51 267.48 322.69 C 282.04 320.04 294.38 310.71 304.14 299.99 C 318.01 284.23 328.27 265.02 332.60 244.41 C 334.38 234.94 335.26 224.38 330.22 215.70 C 328.32 211.98 324.33 209.01 320.00 209.57 C 313.62 210.57 310.56 218.16 311.89 223.92 M 439.43 210.38 C 436.37 211.32 435.83 214.73 434.81 217.31 C 430.71 213.89 425.46 211.85 420.10 211.98 C 404.66 211.08 389.74 217.45 377.35 226.21 C 359.93 238.46 347.26 256.89 340.84 277.10 C 337.54 288.17 336.22 300.79 341.74 311.39 C 344.72 317.72 350.94 322.72 358.08 323.09 C 368.61 324.01 378.38 318.65 386.44 312.42 C 400.33 301.22 411.23 286.85 420.95 272.00 C 419.41 279.22 417.35 286.31 415.64 293.48 C 414.00 300.58 411.37 307.66 412.05 315.07 C 412.06 318.94 415.14 322.46 418.97 323.02 C 424.31 323.90 429.42 321.48 433.87 318.81 C 442.46 313.34 449.76 305.93 455.28 297.38 C 457.59 293.85 460.05 290.23 460.82 286.00 C 461.25 283.19 458.31 280.32 455.50 281.22 C 452.46 282.94 451.25 286.44 449.23 289.11 C 445.11 294.79 440.59 300.35 434.87 304.49 C 434.49 299.16 436.59 294.14 437.63 289.00 C 443.69 264.99 449.69 240.97 455.65 216.94 C 456.26 214.80 456.56 211.85 454.00 210.91 C 449.47 208.93 444.14 209.19 439.43 210.38 M 118.01 281.95 C 118.23 292.08 121.02 302.55 127.75 310.34 C 134.53 318.65 145.28 323.45 155.99 323.15 C 169.25 323.44 181.85 317.23 191.75 308.78 C 196.86 304.53 201.37 299.53 204.91 293.91 C 206.37 291.75 206.88 288.10 204.12 286.75 C 201.86 284.96 199.05 286.90 197.78 288.93 C 191.52 297.89 182.25 304.87 171.66 307.78 C 163.45 309.68 153.82 308.62 147.71 302.30 C 141.53 295.97 140.41 286.57 140.74 278.12 C 158.57 276.15 176.80 274.41 193.55 267.52 C 199.95 264.76 206.20 261.22 210.81 255.88 C 217.10 248.99 219.09 238.66 216.42 229.80 C 214.05 222.45 207.72 216.96 200.62 214.31 C 193.45 211.34 185.45 211.65 177.88 212.49 C 145.19 218.09 118.58 248.71 118.01 281.95 Z" />
<path fill="#00cc3f" opacity="1.00" d=" M 161.82 230.83 C 167.97 224.89 176.17 220.33 184.94 220.83 C 189.65 220.44 194.85 223.29 195.91 228.13 C 197.40 235.18 195.55 242.62 191.81 248.69 C 188.02 255.35 181.13 259.54 174.16 262.23 C 163.86 266.29 152.83 267.85 141.90 269.14 C 145.63 255.15 151.54 241.28 161.82 230.83 Z" />
<path fill="#00cc3f" opacity="1.00" d=" M 411.43 221.52 C 415.61 220.65 420.16 220.36 424.29 221.67 C 428.86 223.03 431.93 228.08 430.84 232.76 C 428.81 240.89 424.56 248.20 420.37 255.38 C 413.43 267.07 405.28 278.03 396.28 288.22 C 390.72 294.04 385.07 300.01 377.99 304.00 C 374.51 305.95 370.13 307.55 366.25 305.87 C 363.08 304.04 361.29 300.51 360.81 296.97 C 360.15 291.77 360.93 286.49 362.41 281.49 C 367.54 263.74 377.02 247.14 390.31 234.24 C 396.47 228.77 403.27 223.50 411.43 221.52 Z" />
</g>
<g id="#ffffffff">
<path fill="#ffffff" opacity="1.00" d=" M 197.61 169.48 C 202.24 167.27 207.86 164.42 212.89 167.15 C 217.01 168.97 218.58 174.59 216.24 178.37 C 214.45 181.66 210.66 183.05 207.33 184.24 C 194.00 188.55 180.72 193.04 167.34 197.19 C 165.27 197.75 162.75 198.68 160.85 197.21 C 159.28 196.30 158.74 194.52 158.19 192.92 C 159.67 188.55 164.33 187.14 167.99 185.13 C 177.82 179.84 187.77 174.76 197.61 169.48 Z" />
<path fill="#ffffff" opacity="1.00" d=" M 80.10 193.05 C 80.68 189.93 83.92 188.20 86.89 188.24 C 91.35 188.35 96.77 187.13 100.09 190.96 C 100.10 199.31 96.92 207.23 94.86 215.22 C 101.12 215.37 107.42 214.87 113.66 215.42 C 119.23 216.54 116.90 225.60 111.82 225.60 C 105.43 225.94 99.02 225.70 92.62 225.68 C 86.37 250.11 80.39 274.62 74.17 299.07 C 73.72 301.00 73.56 303.03 74.04 304.98 C 75.61 306.16 77.34 304.58 78.66 303.76 C 85.42 298.00 90.51 290.58 94.96 282.96 C 96.80 279.80 102.11 281.63 102.17 285.05 C 102.32 288.26 100.47 291.07 98.94 293.75 C 93.51 302.39 86.97 310.45 79.02 316.90 C 74.02 320.84 67.67 324.49 61.09 322.72 C 56.56 321.11 54.01 316.38 53.18 311.89 C 51.79 302.43 55.08 293.25 57.23 284.18 C 62.17 264.73 66.95 245.24 72.09 225.85 C 67.70 225.60 63.30 225.90 58.91 225.67 C 56.48 225.60 53.78 223.68 53.98 221.04 C 53.78 218.46 55.74 215.78 58.33 215.38 C 63.70 214.69 69.31 215.86 74.58 214.85 C 76.44 207.59 78.16 200.29 80.10 193.05 Z" />
<path fill="#ffffff" opacity="1.00" d=" M 311.89 223.92 C 310.56 218.16 313.62 210.57 320.00 209.57 C 324.33 209.01 328.32 211.98 330.22 215.70 C 335.26 224.38 334.38 234.94 332.60 244.41 C 328.27 265.02 318.01 284.23 304.14 299.99 C 294.38 310.71 282.04 320.04 267.48 322.69 C 260.10 323.51 251.96 323.77 245.40 319.73 C 238.92 316.04 235.86 308.23 235.97 301.03 C 235.72 294.48 238.01 288.25 239.84 282.06 C 245.54 265.71 251.24 249.35 257.10 233.06 C 257.79 231.28 258.04 229.39 258.23 227.51 C 256.21 227.64 254.24 228.29 252.76 229.70 C 247.59 234.19 242.84 239.24 239.08 244.98 C 237.92 246.74 236.38 248.60 234.05 248.57 C 231.25 248.09 229.41 244.71 230.82 242.16 C 236.57 230.72 246.31 221.67 257.27 215.27 C 261.82 212.58 267.31 211.04 272.54 212.40 C 275.86 213.58 278.69 216.55 279.12 220.12 C 280.15 225.46 278.75 230.88 277.13 235.96 C 272.15 250.31 267.12 264.64 262.09 278.98 C 259.65 286.14 256.50 293.30 256.43 300.99 C 256.36 304.76 258.56 308.40 261.88 310.16 C 264.34 311.63 267.37 311.14 270.09 310.95 C 277.72 309.59 284.37 305.18 290.19 300.25 C 299.44 291.88 306.74 281.52 312.39 270.44 C 316.59 261.54 320.37 251.93 320.02 241.93 C 319.80 234.93 312.62 230.78 311.89 223.92 Z" />
<path fill="#ffffff" opacity="1.00" d=" M 439.43 210.38 C 444.14 209.19 449.47 208.93 454.00 210.91 C 456.56 211.85 456.26 214.80 455.65 216.94 C 449.69 240.97 443.69 264.99 437.63 289.00 C 436.59 294.14 434.49 299.16 434.87 304.49 C 440.59 300.35 445.11 294.79 449.23 289.11 C 451.25 286.44 452.46 282.94 455.50 281.22 C 458.31 280.32 461.25 283.19 460.82 286.00 C 460.05 290.23 457.59 293.85 455.28 297.38 C 449.76 305.93 442.46 313.34 433.87 318.81 C 429.42 321.48 424.31 323.90 418.97 323.02 C 415.14 322.46 412.06 318.94 412.05 315.07 C 411.37 307.66 414.00 300.58 415.64 293.48 C 417.35 286.31 419.41 279.22 420.95 272.00 C 411.23 286.85 400.33 301.22 386.44 312.42 C 378.38 318.65 368.61 324.01 358.08 323.09 C 350.94 322.72 344.72 317.72 341.74 311.39 C 336.22 300.79 337.54 288.17 340.84 277.10 C 347.26 256.89 359.93 238.46 377.35 226.21 C 389.74 217.45 404.66 211.08 420.10 211.98 C 425.46 211.85 430.71 213.89 434.81 217.31 C 435.83 214.73 436.37 211.32 439.43 210.38 M 411.43 221.52 C 403.27 223.50 396.47 228.77 390.31 234.24 C 377.02 247.14 367.54 263.74 362.41 281.49 C 360.93 286.49 360.15 291.77 360.81 296.97 C 361.29 300.51 363.08 304.04 366.25 305.87 C 370.13 307.55 374.51 305.95 377.99 304.00 C 385.07 300.01 390.72 294.04 396.28 288.22 C 405.28 278.03 413.43 267.07 420.37 255.38 C 424.56 248.20 428.81 240.89 430.84 232.76 C 431.93 228.08 428.86 223.03 424.29 221.67 C 420.16 220.36 415.61 220.65 411.43 221.52 Z" />
<path fill="#ffffff" opacity="1.00" d=" M 118.01 281.95 C 118.58 248.71 145.19 218.09 177.88 212.49 C 185.45 211.65 193.45 211.34 200.62 214.31 C 207.72 216.96 214.05 222.45 216.42 229.80 C 219.09 238.66 217.10 248.99 210.81 255.88 C 206.20 261.22 199.95 264.76 193.55 267.52 C 176.80 274.41 158.57 276.15 140.74 278.12 C 140.41 286.57 141.53 295.97 147.71 302.30 C 153.82 308.62 163.45 309.68 171.66 307.78 C 182.25 304.87 191.52 297.89 197.78 288.93 C 199.05 286.90 201.86 284.96 204.12 286.75 C 206.88 288.10 206.37 291.75 204.91 293.91 C 201.37 299.53 196.86 304.53 191.75 308.78 C 181.85 317.23 169.25 323.44 155.99 323.15 C 145.28 323.45 134.53 318.65 127.75 310.34 C 121.02 302.55 118.23 292.08 118.01 281.95 M 161.82 230.83 C 151.54 241.28 145.63 255.15 141.90 269.14 C 152.83 267.85 163.86 266.29 174.16 262.23 C 181.13 259.54 188.02 255.35 191.81 248.69 C 195.55 242.62 197.40 235.18 195.91 228.13 C 194.85 223.29 189.65 220.44 184.94 220.83 C 176.17 220.33 167.97 224.89 161.82 230.83 Z" />
</g>
</svg>
